<mxfile host="app.diagrams.net" modified="2023-09-28T02:10:34.334Z" agent="Mozilla/5.0 (Windows NT 10.0; Win64; x64) AppleWebKit/537.36 (KHTML, like Gecko) Chrome/100.0.4896.127 Safari/537.36 Edg/100.0.1185.50" etag="GzqbPoEiuGf_tq9Oe_0W" version="21.8.2" type="github">
  <diagram name="Page-1" id="Ub3Fol2sI5hlA19Kyutq">
    <mxGraphModel dx="1434" dy="796" grid="1" gridSize="10" guides="1" tooltips="1" connect="1" arrows="1" fold="1" page="1" pageScale="1" pageWidth="850" pageHeight="1100" math="0" shadow="0">
      <root>
        <mxCell id="0" />
        <mxCell id="1" parent="0" />
        <mxCell id="ESKk9CUr-roQ0oFz5PuK-3" value="Window" style="html=1;whiteSpace=wrap;" vertex="1" parent="1">
          <mxGeometry x="130" y="360" width="110" height="50" as="geometry" />
        </mxCell>
        <mxCell id="ESKk9CUr-roQ0oFz5PuK-4" value="Object" style="html=1;whiteSpace=wrap;" vertex="1" parent="1">
          <mxGeometry x="70" y="510" width="110" height="50" as="geometry" />
        </mxCell>
      </root>
    </mxGraphModel>
  </diagram>
</mxfile>
